<?xml version="1.0" encoding="UTF-8"?>
<!-- Generator: Adobe Illustrator 21.1.0, SVG Export Plug-In . SVG Version: 6.00 Build 0)  -->
<svg version="1.1" id="Layer_2" xmlns="http://www.w3.org/2000/svg" xmlns:xlink="http://www.w3.org/1999/xlink" x="0px" y="0px" viewBox="0 0 11508.7 2422.8" style="enable-background:new 0 0 11508.7 2422.8;" xml:space="preserve" data-ember-extension="1">
<style type="text/css">
	.st0{fill:#6D6E71;}
	.st1{fill:#D22128;}
	.st2{fill:url(#SVGID_1_);}
	.st3{fill:none;}
	.st4{fill:#BE202E;}
	.st5{opacity:0.35;fill:#BE202E;enable-background:new    ;}
	.st6{fill:url(#SVGID_2_);}
	.st7{fill:url(#SVGID_3_);}
	.st8{fill:url(#SVGID_4_);}
	.st9{fill:url(#SVGID_5_);}
	.st10{fill:url(#SVGID_6_);}
	.st11{fill:url(#SVGID_7_);}
	.st12{fill:url(#SVGID_8_);}
	.st13{fill:url(#SVGID_9_);}
	.st14{fill:url(#SVGID_10_);}
</style>
<path class="st0" d="M6486.5,705c15.3,15.3,22.9,33.7,22.9,55.2s-7.6,39.9-22.9,55.4c-15.3,15.4-33.8,23.1-55.6,23.1  c-21.8,0-40.2-7.6-55.4-22.9c-15.1-15.3-22.7-33.7-22.7-55.2s7.6-39.9,22.9-55.4c15.3-15.4,33.7-23.1,55.4-23.1  C6452.7,682.1,6471.2,689.7,6486.5,705z M6479.9,809.1c13.3-13.6,20-29.8,20-48.7s-6.6-35-19.8-48.5c-13.2-13.4-29.4-20.1-48.6-20.1  s-35.4,6.7-48.7,20.2c-13.3,13.5-19.9,29.7-19.9,48.7s6.6,35.2,19.7,48.6c13.1,13.4,29.3,20.1,48.5,20.1S6466.5,822.6,6479.9,809.1z   M6468.9,745.3c0,14-6.1,22.8-18.4,26.4l22.5,30.5h-18.2l-20.3-28.3h-18.6v28.3h-14.7v-84.6h31.8c12.8,0,22,2.2,27.6,6.6  C6466.2,728.6,6468.9,735.6,6468.9,745.3z M6450,757.2c3-2.4,4.4-6.5,4.4-12s-1.5-9.4-4.5-11.6c-3-2.2-8.4-3.2-16-3.2h-18v30.5h17.5  C6441.5,760.8,6447.1,759.6,6450,757.2z"/>
<path class="st1" d="M956.3,1709.6L1373.6,712h80.1l417.3,997.6h-105.4l-129.3-311.9h-448.2l-127.9,311.9H956.3z M1414.4,827.2  l-205.1,493.2H1614L1414.4,827.2z"/>
<path class="st1" d="M1978.7,1709.6V712h413.1c171.4,0,295.1,158.8,295.1,313.3c0,163-115.2,316.1-286.6,316.1h-324.6v368.1h-97  V1709.6z M2075.7,1254.3h318.9c118,0,193.9-108.2,193.9-229c0-125.1-92.7-226.2-202.3-226.2h-310.5L2075.7,1254.3L2075.7,1254.3z"/>
<path class="st1" d="M2632.3,1709.6L3049.6,712h80.1l417.3,997.6h-105.4l-129.3-311.9h-448.2l-127.9,311.9H2632.3z M3090.4,827.2  l-205.1,493.2H3290L3090.4,827.2z"/>
<path class="st1" d="M4019.1,706.3c177,0,306.3,89.9,368.1,217.8l-78.7,47.8c-63.2-132.1-186.9-177-295.1-177  c-238.9,0-369.5,213.6-369.5,414.5c0,220.6,161.6,420.1,373.7,420.1c112.4,0,244.5-56.2,307.7-185.5l81.5,42.1  c-64.6,148.9-241.7,231.8-394.8,231.8c-274,0-466.5-261.3-466.5-514.2C3545.6,963.5,3718.4,706.3,4019.1,706.3z"/>
<path class="st1" d="M5330.9,712v997.6h-98.4v-466.5H4641v466.5h-96.9V712h96.9v444h591.5V712L5330.9,712L5330.9,712z"/>
<path class="st1" d="M6226.4,1622.4v87.1h-670.2V712h657.6v87.1h-560.6v359.7h489v82.9h-489v380.8h573.2V1622.4z"/>
<linearGradient id="SVGID_1_" gradientUnits="userSpaceOnUse" x1="-2824.072" y1="6610.1787" x2="-2633.9475" y2="6387.8613" gradientTransform="matrix(0.4226 -0.9063 -0.9063 -0.4226 8074.5908 881.0625)">
	<stop offset="0" style="stop-color:#F69923"/>
	<stop offset="0.3123" style="stop-color:#F79A23"/>
	<stop offset="0.8383" style="stop-color:#E97826"/>
</linearGradient>
<path class="st2" d="M955.8,539.3c-21.1,12.5-56.2,47.7-98,98.9l38.5,72.6c27-38.6,54.4-73.4,82.1-103c2.1-2.4,3.3-3.5,3.3-3.5  c-1.1,1.2-2.1,2.3-3.3,3.5c-8.9,9.9-36.1,41.5-77.1,104.5c39.4-2,100.1-10.1,149.6-18.5c14.7-82.4-14.4-120.2-14.4-120.2  S999.2,513.6,955.8,539.3z"/>
<path class="st3" d="M890.6,953.5c0.3,0,0.6-0.1,0.8-0.1l-5.5,0.6c-0.3,0.1-0.7,0.3-1,0.5C886.9,954.1,888.8,953.8,890.6,953.5z"/>
<path class="st3" d="M851.4,1083.6c-3.1,0.7-6.4,1.3-9.6,1.7C845,1084.8,848.2,1084.3,851.4,1083.6z"/>
<path class="st3" d="M584.5,1375.4c0.4-1.1,0.8-2.2,1.2-3.3c8.5-22.4,16.9-44.1,25.2-65.3c9.3-23.8,18.5-46.8,27.6-69.1  c9.6-23.5,19-46.2,28.4-68.1c9.8-23,19.4-45.2,28.9-66.5c7.7-17.4,15.3-34.2,22.8-50.4c2.5-5.4,5-10.8,7.5-16.1  c4.9-10.6,9.8-20.9,14.6-31c4.4-9.3,8.8-18.4,13.2-27.4c1.4-3,2.9-6,4.3-8.9c0.2-0.5,0.5-0.9,0.7-1.4l-4.8,0.5l-3.7-7.4  c-0.4,0.7-0.7,1.4-1.1,2.1c-6.8,13.4-13.5,27-20.1,40.6c-3.8,7.9-7.6,15.8-11.5,23.8c-10.5,22.1-20.9,44.3-31,66.7  c-10.3,22.6-20.4,45.4-30.2,68.2c-9.7,22.4-19.2,44.8-28.5,67.2c-9.3,22.4-18.4,44.6-27.2,66.7c-9.3,23.1-18.3,46-27,68.6  c-2,5.1-4,10.2-5.9,15.3c-7,18.3-13.8,36.2-20.5,54l5.9,11.7l5.3-0.6c0.2-0.5,0.4-1.1,0.6-1.6  C567.6,1420.4,576.1,1397.5,584.5,1375.4z"/>
<path class="st3" d="M839.3,1085.7L839.3,1085.7C839.3,1085.7,839.3,1085.7,839.3,1085.7C839.3,1085.7,839.3,1085.7,839.3,1085.7z"/>
<path class="st4" d="M826.5,1149.1c-4.9,0.9-10,1.8-15.1,2.7c0,0,0,0-0.1,0c2.6-0.4,5.2-0.8,7.7-1.2  C821.6,1150.1,824.1,1149.6,826.5,1149.1z"/>
<path class="st5" d="M826.5,1149.1c-4.9,0.9-10,1.8-15.1,2.7c0,0,0,0-0.1,0c2.6-0.4,5.2-0.8,7.7-1.2  C821.6,1150.1,824.1,1149.6,826.5,1149.1z"/>
<path class="st4" d="M839.4,1085.6C839.4,1085.6,839.4,1085.6,839.4,1085.6C839.4,1085.7,839.3,1085.7,839.4,1085.6  c0.7,0,1.5-0.2,2.3-0.3c3.3-0.5,6.5-1,9.6-1.7C847.5,1084.3,843.5,1084.9,839.4,1085.6L839.4,1085.6L839.4,1085.6z"/>
<path class="st5" d="M839.4,1085.6C839.4,1085.6,839.4,1085.6,839.4,1085.6C839.4,1085.7,839.3,1085.7,839.4,1085.6  c0.7,0,1.5-0.2,2.3-0.3c3.3-0.5,6.5-1,9.6-1.7C847.5,1084.3,843.5,1084.9,839.4,1085.6L839.4,1085.6L839.4,1085.6z"/>
<linearGradient id="SVGID_2_" gradientUnits="userSpaceOnUse" x1="-4231.1899" y1="6634.7417" x2="-2874.7527" y2="6634.7417" gradientTransform="matrix(0.4226 -0.9063 -0.9063 -0.4226 8074.5908 881.0625)">
	<stop offset="0.3233" style="stop-color:#9E2064"/>
	<stop offset="0.6302" style="stop-color:#C92037"/>
	<stop offset="0.7514" style="stop-color:#CD2335"/>
	<stop offset="1" style="stop-color:#E97826"/>
</linearGradient>
<path class="st6" d="M782.8,898.4c11.7-21.8,23.5-43.2,35.5-64c12.4-21.6,25-42.5,37.7-62.7c0.7-1.2,1.5-2.4,2.2-3.6  c12.6-19.9,25.2-39,38-57.2l-38.5-72.7c-2.9,3.5-5.8,7.1-8.8,10.8c-11.1,13.8-22.6,28.7-34.4,44.5c-13.3,17.8-27,36.7-40.9,56.7  c-12.9,18.4-25.8,37.7-38.9,57.6c-11.1,17-22.2,34.5-33.3,52.4c-0.4,0.7-0.8,1.4-1.2,2l50.1,98.9C761,939.8,771.8,918.9,782.8,898.4  z"/>
<linearGradient id="SVGID_3_" gradientUnits="userSpaceOnUse" x1="-4067.4495" y1="6498.8228" x2="-3259.145" y2="6498.8228" gradientTransform="matrix(0.4226 -0.9063 -0.9063 -0.4226 8074.5908 881.0625)">
	<stop offset="0" style="stop-color:#282662"/>
	<stop offset="9.548389e-02" style="stop-color:#662E8D"/>
	<stop offset="0.7882" style="stop-color:#9F2064"/>
	<stop offset="0.9487" style="stop-color:#CD2032"/>
</linearGradient>
<path class="st7" d="M554.7,1455.6c-6.6,18.2-13.3,36.7-20,55.7c-0.1,0.3-0.2,0.6-0.3,0.8c-0.9,2.7-1.9,5.4-2.8,8  c-4.5,12.8-8.4,24.3-17.4,50.4c14.8,6.8,26.6,24.5,37.8,44.5c-1.2-20.8-9.8-40.3-26.2-55.5c72.7,3.3,135.3-15.1,167.7-68.3  c2.9-4.8,5.5-9.7,7.9-15c-14.7,18.7-33,26.6-67.3,24.7c-0.1,0-0.1,0-0.2,0.1c0.1,0,0.1,0,0.2-0.1c50.6-22.6,76-44.4,98.4-80.4  c5.3-8.5,10.5-17.9,15.7-28.2c-44.2,45.4-95.5,58.4-149.5,48.5l-40.5,4.4C557.2,1448.7,556,1452.1,554.7,1455.6z"/>
<linearGradient id="SVGID_4_" gradientUnits="userSpaceOnUse" x1="-4155.0049" y1="6647.4004" x2="-2798.5679" y2="6647.4004" gradientTransform="matrix(0.4226 -0.9063 -0.9063 -0.4226 8074.5908 881.0625)">
	<stop offset="0.3233" style="stop-color:#9E2064"/>
	<stop offset="0.6302" style="stop-color:#C92037"/>
	<stop offset="0.7514" style="stop-color:#CD2335"/>
	<stop offset="1" style="stop-color:#E97826"/>
</linearGradient>
<path class="st8" d="M573.6,1364.9c8.8-22.6,17.7-45.5,27-68.6c8.8-22.1,17.9-44.3,27.2-66.7c9.3-22.4,18.8-44.8,28.5-67.2  c9.9-22.8,20-45.6,30.2-68.2c10.2-22.4,20.5-44.7,31-66.7c3.8-8,7.6-15.9,11.5-23.8c6.6-13.6,13.3-27.2,20.1-40.6  c0.4-0.7,0.7-1.4,1.1-2.1l-50.1-98.9c-0.8,1.4-1.6,2.7-2.5,4c-11.7,19-23.3,38.5-34.7,58.4c-11.5,20.1-22.8,40.6-33.9,61.3  c-9.3,17.5-18.4,35.2-27.3,53c-1.8,3.6-3.5,7.2-5.3,10.8c-10.9,22.4-20.8,44.2-29.7,65c-10.1,23.6-19,46.2-26.8,67.6  c-5.1,14.1-9.8,27.7-14,40.7c-3.5,11.2-6.8,22.3-10,33.4c-7.5,26.2-13.9,52.4-19.2,78.4l50.3,99.4c6.7-17.7,13.5-35.8,20.5-54  C569.7,1375.1,571.7,1370,573.6,1364.9z"/>
<linearGradient id="SVGID_5_" gradientUnits="userSpaceOnUse" x1="-4056.0786" y1="6629.0361" x2="-3343.2302" y2="6629.0361" gradientTransform="matrix(0.4226 -0.9063 -0.9063 -0.4226 8074.5908 881.0625)">
	<stop offset="0" style="stop-color:#282662"/>
	<stop offset="9.548389e-02" style="stop-color:#662E8D"/>
	<stop offset="0.7882" style="stop-color:#9F2064"/>
	<stop offset="0.9487" style="stop-color:#CD2032"/>
</linearGradient>
<path class="st9" d="M496.3,1338.4c-6.3,31.8-10.8,63.4-13,94.9c-0.1,1.1-0.2,2.2-0.2,3.3c-15.7-25.2-57.8-49.7-57.7-49.5  c30.1,43.6,53,87,56.3,129.5c-16.1,3.3-38.2-1.5-63.7-10.9c26.6,24.5,46.6,31.2,54.4,33c-24.5,1.5-49.9,18.3-75.5,37.6  c37.5-15.3,67.8-21.3,89.5-16.4c-34.4,97.3-68.9,204.8-103.4,319c10.6-3.1,16.9-10.2,20.4-19.8c6.1-20.7,46.9-156.3,110.9-334.5  c1.8-5.1,3.6-10.2,5.5-15.3c0.5-1.4,1-2.8,1.5-4.3c6.8-18.7,13.7-37.8,21-57.2c1.6-4.4,3.3-8.8,5-13.3c0-0.1,0-0.2,0.1-0.3  l-50.3-99.3C496.8,1336,496.5,1337.2,496.3,1338.4z"/>
<linearGradient id="SVGID_6_" gradientUnits="userSpaceOnUse" x1="-4155.0049" y1="6507.0278" x2="-2798.5679" y2="6507.0278" gradientTransform="matrix(0.4226 -0.9063 -0.9063 -0.4226 8074.5908 881.0625)">
	<stop offset="0.3233" style="stop-color:#9E2064"/>
	<stop offset="0.6302" style="stop-color:#C92037"/>
	<stop offset="0.7514" style="stop-color:#CD2335"/>
	<stop offset="1" style="stop-color:#E97826"/>
</linearGradient>
<path class="st10" d="M758.1,969.3c-1.4,2.9-2.9,5.9-4.3,8.9c-4.3,8.9-8.8,18.1-13.2,27.4c-4.8,10.1-9.6,20.4-14.6,31  c-2.5,5.3-4.9,10.7-7.5,16.1c-7.5,16.3-15.1,33.1-22.8,50.4c-9.5,21.3-19.1,43.5-28.9,66.5c-9.3,21.9-18.8,44.7-28.4,68.1  c-9.1,22.3-18.3,45.3-27.6,69.1c-8.3,21.1-16.7,42.9-25.2,65.3c-0.4,1.1-0.8,2.2-1.2,3.3c-8.4,22.2-16.9,45-25.4,68.4  c-0.2,0.5-0.4,1.1-0.6,1.6l40.5-4.4c-0.8-0.1-1.6-0.2-2.4-0.4c48.4-6.1,112.8-42.2,154.4-86.9c19.1-20.6,36.6-44.9,52.6-73.3  c12-21.1,23.2-44.6,33.9-70.6c9.4-22.7,18.4-47.2,27-73.9c-11.1,5.9-23.8,10.2-37.9,13.1c-2.5,0.5-5,1-7.5,1.4  c-2.6,0.5-5.1,0.8-7.7,1.2l0,0l0,0c0,0,0,0,0.1,0c45.1-17.4,73.6-50.9,94.3-91.9c-11.9,8.1-31.2,18.7-54.3,23.8  c-3.1,0.7-6.4,1.3-9.6,1.7c-0.8,0.1-1.6,0.3-2.4,0.4l0,0l0,0c0,0,0,0,0,0h0l0,0c15.6-6.6,28.9-13.9,40.3-22.5  c2.5-1.9,4.8-3.8,7.1-5.7c3.5-3,6.8-6.2,10-9.5c2-2.1,4-4.3,5.9-6.6c4.5-5.4,8.7-11.1,12.6-17.4c1.2-1.9,2.4-3.9,3.5-5.9  c1.5-2.9,2.9-5.7,4.3-8.5c6.3-12.7,11.4-24,15.4-33.9c2-4.9,3.8-9.5,5.3-13.8c0.6-1.7,1.2-3.4,1.7-4.9c1.6-4.8,2.9-9,3.9-12.7  c1.5-5.6,2.5-10,3-13.2l0,0l0,0c-1.5,1.2-3.3,2.4-5.3,3.6c-13.6,8.2-37,15.6-55.8,19l37.2-4.1l-37.2,4.1c-0.3,0-0.6,0.1-0.8,0.1  c-1.9,0.3-3.8,0.6-5.7,0.9c0.3-0.1,0.7-0.3,1-0.5l-127.2,13.9C758.5,968.4,758.3,968.8,758.1,969.3z"/>
<linearGradient id="SVGID_7_" gradientUnits="userSpaceOnUse" x1="-4239.1494" y1="6514.0288" x2="-2882.7122" y2="6514.0288" gradientTransform="matrix(0.4226 -0.9063 -0.9063 -0.4226 8074.5908 881.0625)">
	<stop offset="0.3233" style="stop-color:#9E2064"/>
	<stop offset="0.6302" style="stop-color:#C92037"/>
	<stop offset="0.7514" style="stop-color:#CD2335"/>
	<stop offset="1" style="stop-color:#E97826"/>
</linearGradient>
<path class="st11" d="M901.2,712.3c-11.3,17.4-23.7,37.1-37,59.4c-0.7,1.2-1.4,2.4-2.1,3.5c-11.5,19.3-23.7,40.6-36.5,63.8  c-11.1,20.1-22.6,41.6-34.6,64.7c-10.4,20.2-21.2,41.5-32.3,64.2L885.9,954c37-17,53.6-32.5,69.7-54.8c4.3-6.1,8.6-12.6,12.8-19.2  c13-20.4,25.9-42.8,37.3-65.2c11-21.6,20.8-42.9,28.3-62.2c4.8-12.2,8.6-23.7,11.2-33.7c2.3-8.8,4.1-17.2,5.5-25.2  C1001.3,702.2,940.7,710.3,901.2,712.3z"/>
<path class="st4" d="M819,1150.5c-2.6,0.5-5.1,0.8-7.7,1.2l0,0C813.9,1151.4,816.5,1151,819,1150.5z"/>
<path class="st5" d="M819,1150.5c-2.6,0.5-5.1,0.8-7.7,1.2l0,0C813.9,1151.4,816.5,1151,819,1150.5z"/>
<linearGradient id="SVGID_8_" gradientUnits="userSpaceOnUse" x1="-4155.0049" y1="6465.2642" x2="-2798.5681" y2="6465.2642" gradientTransform="matrix(0.4226 -0.9063 -0.9063 -0.4226 8074.5908 881.0625)">
	<stop offset="0.3233" style="stop-color:#9E2064"/>
	<stop offset="0.6302" style="stop-color:#C92037"/>
	<stop offset="0.7514" style="stop-color:#CD2335"/>
	<stop offset="1" style="stop-color:#E97826"/>
</linearGradient>
<path class="st12" d="M819,1150.5c-2.6,0.5-5.1,0.8-7.7,1.2l0,0C813.9,1151.4,816.5,1151,819,1150.5z"/>
<path class="st4" d="M839.3,1085.7c0.8-0.1,1.6-0.2,2.4-0.4C840.9,1085.4,840.1,1085.6,839.3,1085.7L839.3,1085.7z"/>
<path class="st5" d="M839.3,1085.7c0.8-0.1,1.6-0.2,2.4-0.4C840.9,1085.4,840.1,1085.6,839.3,1085.7L839.3,1085.7z"/>
<linearGradient id="SVGID_9_" gradientUnits="userSpaceOnUse" x1="-4155.0049" y1="6470.0537" x2="-2798.5681" y2="6470.0537" gradientTransform="matrix(0.4226 -0.9063 -0.9063 -0.4226 8074.5908 881.0625)">
	<stop offset="0.3233" style="stop-color:#9E2064"/>
	<stop offset="0.6302" style="stop-color:#C92037"/>
	<stop offset="0.7514" style="stop-color:#CD2335"/>
	<stop offset="1" style="stop-color:#E97826"/>
</linearGradient>
<path class="st13" d="M839.3,1085.7c0.8-0.1,1.6-0.2,2.4-0.4C840.9,1085.4,840.1,1085.6,839.3,1085.7L839.3,1085.7z"/>
<path class="st4" d="M839.4,1085.6L839.4,1085.6L839.4,1085.6L839.4,1085.6L839.4,1085.6L839.4,1085.6z"/>
<path class="st5" d="M839.4,1085.6L839.4,1085.6L839.4,1085.6L839.4,1085.6L839.4,1085.6L839.4,1085.6z"/>
<linearGradient id="SVGID_10_" gradientUnits="userSpaceOnUse" x1="-3243.071" y1="6471.0078" x2="-3243.071" y2="6471.0078" gradientTransform="matrix(0.4226 -0.9063 -0.9063 -0.4226 8074.5908 881.0625)">
	<stop offset="0.3233" style="stop-color:#9E2064"/>
	<stop offset="0.6302" style="stop-color:#C92037"/>
	<stop offset="0.7514" style="stop-color:#CD2335"/>
	<stop offset="1" style="stop-color:#E97826"/>
</linearGradient>
<path class="st14" d="M839.4,1085.6L839.4,1085.6L839.4,1085.6L839.4,1085.6L839.4,1085.6L839.4,1085.6z"/>
<g>
	<path class="st0" d="M6588.3,1555.7c58.2,35,143.2,64.1,232.7,64.1c132.8,0,210.3-68.5,210.3-167.6c0-91.8-53.7-144.3-189.4-195.2   c-164.1-56.8-265.5-139.9-265.5-278.3c0-153,129.8-266.6,325.2-266.6c102.9,0,177.5,23.3,222.3,48.1L7088,863.6   c-32.8-17.5-99.9-46.6-190.9-46.6c-137.2,0-189.5,80.1-189.5,147.2c0,91.8,61.2,137,199.9,189.4   c170.1,64.1,256.6,144.3,256.6,288.5c0,151.5-114.9,282.7-352,282.7c-97,0-202.9-27.7-256.6-62.7L6588.3,1555.7z"/>
	<path class="st0" d="M7862.2,1249.7h-390.8v354.1H7907v106.4h-565.4V728.1h543v106.4h-413.2v310.4h390.8V1249.7z"/>
	<path class="st0" d="M8075.5,741.2c65.6-13.1,159.6-20.4,249.1-20.4c138.7,0,228.2,24.8,290.9,80.1   c50.7,43.7,79.1,110.7,79.1,186.5c0,129.7-83.5,215.6-189.4,250.6v4.4c77.6,26.2,123.8,96.2,147.7,198.2   c32.8,137,56.7,231.7,77.6,269.6h-134.3c-16.4-27.7-38.8-112.2-67.1-234.6c-29.8-135.5-83.5-186.5-201.4-190.9h-122.3v425.5h-129.8   V741.2z M8205.3,1188.5h132.8c138.7,0,226.7-74.3,226.7-186.5c0-126.8-94-182.1-231.2-183.6c-62.7,0-107.4,5.8-128.3,11.7V1188.5z"/>
	<path class="st0" d="M9122.7,1710.1l-328.2-982.1h140.2l156.6,483.7c43.3,132.6,80.6,252.1,107.4,367.2h3   c28.3-113.6,70.1-237.5,114.9-365.7l170.1-485.2h138.7l-359.5,982.1H9122.7z"/>
	<path class="st0" d="M10254.9,1249.7h-390.8v354.1h435.6v106.4h-565.4V728.1h543v106.4h-413.2v310.4h390.8V1249.7z"/>
	<path class="st0" d="M10468.2,741.2c65.6-13.1,159.6-20.4,249.1-20.4c138.7,0,228.2,24.8,290.9,80.1   c50.7,43.7,79.1,110.7,79.1,186.5c0,129.7-83.5,215.6-189.4,250.6v4.4c77.6,26.2,123.8,96.2,147.7,198.2   c32.8,137,56.7,231.7,77.6,269.6h-134.3c-16.4-27.7-38.8-112.2-67.1-234.6c-29.8-135.5-83.5-186.5-201.4-190.9H10598v425.5h-129.8   V741.2z M10598,1188.5h132.8c138.7,0,226.7-74.3,226.7-186.5c0-126.8-94-182.1-231.2-183.6c-62.7,0-107.4,5.8-128.3,11.7V1188.5z"/>
</g>
</svg>